<?xml version="1.0" encoding="UTF-8"?>
<!DOCTYPE svg PUBLIC "-//W3C//DTD SVG 1.1//EN" "http://www.w3.org/Graphics/SVG/1.1/DTD/svg11.dtd">
<!-- Creator: CorelDRAW X6 -->
<svg xmlns="http://www.w3.org/2000/svg" xml:space="preserve" width="5in" height="5in" version="1.1" style="shape-rendering:geometricPrecision; text-rendering:geometricPrecision; image-rendering:optimizeQuality; fill-rule:evenodd; clip-rule:evenodd"
viewBox="0 0 5000 5000"
 xmlns:xlink="http://www.w3.org/1999/xlink">
 <defs>
  <style type="text/css">
   <![CDATA[
    .fil0 {fill:#ED1B23;fill-rule:nonzero}
   ]]>
  </style>
 </defs>
 <g id="Layer_x0020_1">
  <metadata id="CorelCorpID_0Corel-Layer"/>
  <path class="fil0" d="M2260 4007l0 -90 0 0 0 -108c98,-6 105,-22 114,-31 10,-10 30,-44 30,-65l4 -233 0 -391c0,-91 -3,-140 -16,-158 -8,-12 -18,-24 -28,-29 -11,-5 -20,-6 -108,-12l0 -86 -300 0c-2,365 -3,1088 -3,1244 0,595 12,497 35,593 9,39 30,71 66,91 31,18 98,54 188,54l385 0 -267 -744c-6,-16 -11,-22 -21,-27 -15,-8 -11,-7 -79,-8zm633 -1208l0 88c-93,1 -86,15 -100,22 -17,9 -43,42 -45,82l-3 98 0 727 235 -1c79,-44 243,-266 244,-344l3 -139 99 -2 0 30c13,-126 70,-258 190,-378 128,-128 275,-186 421,-196 146,-9 276,43 390,157 108,108 144,244 149,359 6,142 -61,305 -159,399 -75,73 -155,132 -241,169 -47,21 -105,36 -158,44l600 0 0 405 -73 0c-1,-24 2,-44 -6,-74 -21,-76 -65,-118 -82,-134 -15,-14 -95,-97 -153,-97l-227 0 1 373 65 2c79,2 105,-7 124,-21 18,-13 37,-50 57,-127l94 0 0 424 -114 0c0,-28 1,-49 -6,-67 -20,-60 -61,-98 -135,-98l-86 0 0 402 181 0c67,0 174,-110 228,-166 43,-44 57,-86 57,-179l76 0 -1 443 -1077 0 0 -81c97,0 149,-3 162,-12 19,-12 28,-41 28,-89l0 -25 4 -303 0 -244 -4 -113c0,-55 -5,-82 -11,-95 -7,-16 -32,-25 -62,-26 -44,-2 -129,0 -149,0l0 0c-63,-1 -132,23 -153,76l-350 909c-808,0 -1617,0 -2425,0l0 -211 572 -1c76,0 128,-31 150,-49 61,-50 87,-189 88,-412l0 -3643c0,-150 -17,-220 -64,-260 -91,-80 -142,-122 -310,-124l-433 -4 -3 -293 2557 0c515,0 882,138 1118,357 237,219 355,519 355,897 0,440 -159,807 -477,1104 -285,266 -665,413 -1141,441zm-938 -298l642 0c382,0 677,-101 886,-303 209,-201 314,-471 314,-806 0,-326 -96,-581 -288,-764 -194,-183 -493,-220 -889,-219l-658 0 -7 2092zm1838 1413c-47,-8 -95,-23 -127,-37 -69,-30 -124,-70 -190,-136 -88,-88 -138,-183 -150,-283l1 456 82 0 384 0zm-947 1l0 97c-74,-4 -95,5 -104,12 -9,7 -14,16 -14,27 0,8 2,12 5,20l192 552 139 -362 72 -200c6,-18 -4,-48 -28,-48 -3,0 -21,-2 -90,-1l0 -97 -172 0zm920 -689c-135,136 -245,248 -254,307 -12,80 8,121 49,161 40,40 62,42 114,46 25,2 61,2 139,-58 75,-59 193,-177 214,-199 28,-27 226,-226 250,-281 18,-41 11,-62 11,-75 0,-29 -23,-78 -57,-113 -36,-35 -121,-35 -142,-32 -13,2 -46,11 -108,58 -85,64 -198,168 -216,186z"/>
 </g>
</svg>
